# xmcd
#
# Track frame offsets:
#  150
#  13907
#  29523
#  43367
#  63409
#  77504
#  97531
#  112704
#
# Disc length: 1662 seconds
#
# Revision: 0
# Processed by: cddbd v1.5.2PL0 Copyright (c) Steve Scherf et al.
# Submitted via: AltoMP3_Maker 3.0
#
DISCID=57067c08
DTITLE=Chas Justus with Hungry Hungry - Chas Justus with Hungry Hungry
DYEAR=1900
DGENRE=
TTITLE0=Tired of Writin' Songs
TTITLE1=Poet
TTITLE2=Lost at Sea
TTITLE3=It's Too Late
TTITLE4=Pourin' Rain
TTITLE5=Rattle My Cage
TTITLE6=Maria
TTITLE7=Another Song
EXTD=
EXTT0=
EXTT1=
EXTT2=
EXTT3=
EXTT4=
EXTT5=
EXTT6=
EXTT7=
PLAYORDER=
